<?xml version="1.0" encoding="utf-8"?>
<svg width="70" height="70" viewBox="0 0 70 70" fill="none" xmlns="https://www.w3.org/2000/svg">
<g clip-path="url(#clip0_78_6592)">
<path d="M34.2317 22.3804C28.8082 22.3804 24.4058 26.816 24.4058 32.2804C24.4058 36.3621 26.865 39.8686 30.3782 41.3841C31.5639 41.8929 32.8593 42.1694 34.2317 42.1694C35.604 42.1694 36.8995 41.8929 38.0852 41.3841C41.5984 39.8686 44.0576 36.3621 44.0576 32.2804C44.0576 26.816 39.6551 22.3804 34.2317 22.3804V22.3804Z" stroke="#DD2228" stroke-width="4" stroke-linecap="round" stroke-linejoin="round"/>
<path d="M38.6123 41.2402V45.9856C38.6123 46.3617 38.3049 46.6714 37.9316 46.6714H30.543C30.1697 46.6714 29.8623 46.3728 29.8623 45.9856V41.3177" stroke="#DD2228" stroke-width="4" stroke-linecap="round" stroke-linejoin="round"/>
<path d="M31.2124 47.4678H37.2507V47.5231C37.2507 49.0717 36.0101 50.3216 34.4731 50.3216H33.99C32.453 50.3216 31.2124 49.0717 31.2124 47.5231V47.4678Z" fill="#DD2228"/>
<path d="M38.3927 30.8867H35.3735C35.132 30.8867 34.9563 30.6544 35.0112 30.4221L35.9664 26.7055C36.0652 26.3183 35.5711 26.0639 35.3186 26.3736L29.7854 33.0658C29.5878 33.3092 29.7524 33.6742 30.0708 33.6742H33.09C33.3315 33.6742 33.5071 33.9065 33.4523 34.1388L32.4971 37.8665C32.3983 38.2537 32.8923 38.5081 33.1449 38.1984L38.6781 31.4951C38.8757 31.2517 38.711 30.8867 38.3927 30.8867Z" fill="#DD2228"/>
<path d="M3.40332 14.2608C5.07208 23.1321 12.6364 35.5984 24.0652 47.1245C40.9394 64.1261 59.8666 72.6213 66.3331 66.1061C72.7995 59.5909 64.3679 40.5208 47.4937 23.5192C34.1107 10.0131 19.4212 1.87185 10.7041 2.35856C10.7041 2.35856 5.53318 2.48023 4.01813 6.55087" stroke="#DD2228" stroke-width="4" stroke-linecap="round" stroke-linejoin="round"/>
<path d="M7.70684 17.0813L3.46907 14.2495L1.48193 18.9617" stroke="#DD2228" stroke-width="4" stroke-linecap="round" stroke-linejoin="round"/>
<path d="M66.5966 14.0508C64.9279 22.9221 57.3636 35.3885 45.9348 46.9146C29.0606 63.9161 10.1333 72.4114 3.6669 65.8961C-2.79954 59.3698 5.63208 40.3108 22.5063 23.3093C35.8893 9.80317 50.5788 1.66189 59.3068 2.14859C59.3068 2.14859 64.3131 2.12647 66.1685 6.54002" stroke="#DD2228" stroke-width="4" stroke-linecap="round" stroke-linejoin="round"/>
<path d="M62.293 16.8713L66.5307 14.0396L68.5179 18.7518" stroke="#DD2228" stroke-width="4" stroke-linecap="round" stroke-linejoin="round"/>
</g>
<defs>
<clipPath id="clip0_78_6592">
<rect width="70" height="69.1566" fill="white" transform="translate(0 0.633301)"/>
</clipPath>
</defs>
</svg>
