<?xml version="1.0" encoding="utf-8"?>
<svg width="56" height="56" viewBox="0 0 56 56" fill="none" xmlns="https://www.w3.org/2000/svg">
<g clip-path="url(#clip0_279_2226)">
<path d="M28.6074 33.6943H20.4676C20.231 33.6943 20.0575 33.4735 20.1206 33.2447L22.8575 22.6678C22.9521 22.2971 22.4789 22.0526 22.2344 22.3445L8.23439 39.1523C8.03721 39.389 8.20284 39.7439 8.51045 39.7439H16.6423C16.8789 39.7439 17.0524 39.9647 16.9893 40.1935L14.2603 50.7861C14.1657 51.1568 14.6389 51.4014 14.8834 51.1095L28.8834 34.2859C29.0806 34.0492 28.915 33.6943 28.6074 33.6943Z" stroke="#DD0C15" stroke-width="2.7" stroke-linecap="round" stroke-linejoin="round"/>
<path d="M6.93304 33.9781C3.49416 32.5899 1.07275 29.2221 1.07275 25.2863C1.07275 21.3505 3.43106 18.0773 6.79895 16.6497" stroke="#DD0C15" stroke-width="2.7" stroke-linecap="round" stroke-linejoin="round"/>
<path d="M15.3252 11.1685C17.6046 8.21072 21.1776 6.30988 25.2001 6.30988C29.8694 6.30988 34.6334 8.30537 36.0689 12.6749" stroke="#DD0C15" stroke-width="2.7" stroke-linecap="round" stroke-linejoin="round"/>
<path d="M34.1836 14.5991C35.7768 12.785 38.1115 11.6492 40.7143 11.6492C44.9025 11.6492 48.3887 14.3151 49.2326 19.1028" stroke="#DD0C15" stroke-width="2.7" stroke-linecap="round" stroke-linejoin="round"/>
<path d="M19.4031 14.2445C18.5592 13.235 17.4313 12.4305 16.0825 11.9888C14.2527 11.3736 12.131 11.6496 10.4983 12.3753C8.0769 13.582 6.40479 16.0902 6.40479 18.9848C6.40479 20.4045 6.80704 21.7217 7.49324 22.8496" stroke="#DD0C15" stroke-width="2.7" stroke-linecap="round" stroke-linejoin="round"/>
<path d="M42.954 18.9851C43.8848 18.646 44.8943 18.4567 45.9512 18.4567C50.7546 18.4567 54.6588 22.353 54.6588 27.1643C54.6588 31.9755 50.7625 35.8719 45.9512 35.8719C44.4526 35.8719 43.0408 35.4933 41.8104 34.8307C41.0217 38.4195 37.8273 41.1012 34.0019 41.1012C32.3219 41.1012 30.7602 40.5806 29.4746 39.6972" stroke="#DD0C15" stroke-width="2.7" stroke-linecap="round" stroke-linejoin="round"/>
<path d="M30.2715 27.2901C30.2715 24.4822 32.543 22.2107 35.3509 22.2107C36.3684 22.2107 37.307 22.5104 38.1036 23.0231" stroke="#DD0C15" stroke-width="2.7" stroke-linecap="round" stroke-linejoin="round"/>
</g>
<defs>
<clipPath id="clip0_279_2226">
<rect width="56" height="56" fill="white"/>
</clipPath>
</defs>
</svg>
