<?xml version="1.0" encoding="utf-8"?>
<svg width="56" height="56" viewBox="0 0 56 56" fill="none" xmlns="https://www.w3.org/2000/svg">
<path d="M31.8812 50.3122C31.8812 48.2691 30.2249 46.6201 28.1891 46.6201C26.1534 46.6201 24.4971 48.2764 24.4971 50.3122C24.4971 52.3479 26.1534 54.0042 28.1891 54.0042C30.2249 54.0042 31.8812 52.3479 31.8812 50.3122Z" stroke="#DD0C15" stroke-width="2.7" stroke-linecap="round" stroke-linejoin="round"/>
<path d="M31.8812 6.05827C31.8812 4.01523 30.2249 2.36621 28.1891 2.36621C26.1534 2.36621 24.4971 4.02253 24.4971 6.05827C24.4971 8.09401 26.1534 9.75032 28.1891 9.75032C30.2249 9.75032 31.8812 8.09401 31.8812 6.05827V6.05827Z" stroke="#DD0C15" stroke-width="2.7" stroke-linecap="round" stroke-linejoin="round"/>
<path d="M28.1816 15.2898V9.75897" stroke="#DD0C15" stroke-width="2.7" stroke-linecap="round" stroke-linejoin="round"/>
<path d="M28.1816 46.6208V41.09" stroke="#DD0C15" stroke-width="2.7" stroke-linecap="round" stroke-linejoin="round"/>
<path d="M15.1575 46.4456C16.6022 45.0008 16.6022 42.666 15.1575 41.2212C13.7128 39.7765 11.3779 39.7765 9.93315 41.2212C8.48843 42.666 8.48843 45.0008 9.93315 46.4456C11.3779 47.8903 13.7128 47.8903 15.1575 46.4456V46.4456Z" stroke="#DD0C15" stroke-width="2.7" stroke-linecap="round" stroke-linejoin="round"/>
<path d="M46.4451 15.1573C47.8898 13.7126 47.8898 11.3777 46.4451 9.93296C45.0004 8.48825 42.6655 8.48825 41.2207 9.93296C39.776 11.3777 39.776 13.7126 41.2207 15.1573C42.6655 16.602 45.0004 16.602 46.4451 15.1573V15.1573Z" stroke="#DD0C15" stroke-width="2.7" stroke-linecap="round" stroke-linejoin="round"/>
<path d="M41.0896 28.1809C41.0896 31.7489 39.6449 34.974 37.31 37.3089C34.9678 39.6438 31.7428 41.0885 28.182 41.0885C24.6213 41.0885 21.3963 39.6438 19.0614 37.3089C16.7265 34.974 15.2817 31.7489 15.2817 28.1809C15.2817 24.6129 16.7265 21.3951 19.0614 19.0602C21.3963 16.7253 24.6213 15.2806 28.182 15.2806C31.7428 15.2806 34.9678 16.7253 37.31 19.0602C39.6449 21.3951 41.0896 24.6202 41.0896 28.1809Z" stroke="#DD0C15" stroke-width="2.7" stroke-linecap="round" stroke-linejoin="round"/>
<path d="M41.221 15.1566L37.3101 19.0676" stroke="#DD0C15" stroke-width="2.7" stroke-linecap="round" stroke-linejoin="round"/>
<path d="M19.0687 37.3085L15.1577 41.2194" stroke="#DD0C15" stroke-width="2.7" stroke-linecap="round" stroke-linejoin="round"/>
<path d="M6.05876 31.8806C8.10179 31.8806 9.75081 30.2243 9.75081 28.1886C9.75081 26.1528 8.09449 24.4965 6.05876 24.4965C4.02302 24.4965 2.3667 26.1528 2.3667 28.1886C2.3667 30.2243 4.02302 31.8806 6.05876 31.8806V31.8806Z" stroke="#DD0C15" stroke-width="2.7" stroke-linecap="round" stroke-linejoin="round"/>
<path d="M50.3122 31.8806C52.3552 31.8806 54.0042 30.2243 54.0042 28.1886C54.0042 26.1528 52.3479 24.4965 50.3122 24.4965C48.2764 24.4965 46.6201 26.1528 46.6201 28.1886C46.6201 30.2243 48.2764 31.8806 50.3122 31.8806Z" stroke="#DD0C15" stroke-width="2.7" stroke-linecap="round" stroke-linejoin="round"/>
<path d="M46.6201 28.1821H41.0894" stroke="#DD0C15" stroke-width="2.7" stroke-linecap="round" stroke-linejoin="round"/>
<path d="M15.2886 28.1821H9.75781" stroke="#DD0C15" stroke-width="2.7" stroke-linecap="round" stroke-linejoin="round"/>
<path d="M9.93315 15.1573C11.3779 16.602 13.7128 16.602 15.1575 15.1573C16.6022 13.7126 16.6022 11.3777 15.1575 9.93296C13.7128 8.48825 11.3779 8.48825 9.93315 9.93296C8.48843 11.3777 8.48843 13.7126 9.93315 15.1573V15.1573Z" stroke="#DD0C15" stroke-width="2.7" stroke-linecap="round" stroke-linejoin="round"/>
<path d="M41.2207 46.4456C42.6655 47.8903 45.0004 47.8903 46.4451 46.4456C47.8898 45.0008 47.8898 42.666 46.4451 41.2212C45.0004 39.7765 42.6655 39.7765 41.2207 41.2212C39.776 42.666 39.776 45.0008 41.2207 46.4456V46.4456Z" stroke="#DD0C15" stroke-width="2.7" stroke-linecap="round" stroke-linejoin="round"/>
<path d="M41.221 41.2194L37.3101 37.3085" stroke="#DD0C15" stroke-width="2.7" stroke-linecap="round" stroke-linejoin="round"/>
<path d="M19.0687 19.0676L15.1577 15.1566" stroke="#DD0C15" stroke-width="2.7" stroke-linecap="round" stroke-linejoin="round"/>
<path d="M35.0199 35.2642V33.2766C35.0199 31.0209 33.19 29.1831 30.9264 29.1831H25.4368C23.181 29.1831 21.3433 31.013 21.3433 33.2766V35.2642H35.012H35.0199Z" stroke="#DD0C15" stroke-width="2.7" stroke-linecap="round" stroke-linejoin="round"/>
<path d="M28.016 18.9065H28.363C29.972 18.9065 31.2813 20.2158 31.2813 21.8248V23.4811C31.2813 25.0902 29.972 26.3995 28.363 26.3995H28.016C26.407 26.3995 25.0977 25.0902 25.0977 23.4811V21.8248C25.0977 20.2158 26.407 18.9065 28.016 18.9065Z" stroke="#DD0C15" stroke-width="2.7" stroke-linecap="round" stroke-linejoin="round"/>
</svg>
