<?xml version="1.0" encoding="utf-8"?>
<svg width="70" height="69" viewBox="0 0 70 69" fill="none" xmlns="https://www.w3.org/2000/svg">
<g clip-path="url(#clip0_177_11191)">
<path d="M46.5068 3.38283C43.2572 2.29962 39.7856 1.71362 36.1809 1.71362C18.157 1.71362 3.56036 16.3192 3.56036 34.3341C3.56036 35.7902 3.65803 37.2197 3.8356 38.6226M59.1235 57.5254C65.0989 51.6122 68.8014 43.4082 68.8014 34.3341C68.8014 22.3656 62.3554 11.9064 52.7397 6.22402M5.44266 45.2816C9.94418 57.9072 22.0015 66.9546 36.172 66.9546C42.6623 66.9546 48.7176 65.0546 53.7963 61.7872" stroke="#DD2228" stroke-width="2.7" stroke-linecap="round" stroke-linejoin="round"/>
<path d="M4.62583 45.3793C6.51862 45.3793 8.05303 43.8449 8.05303 41.9521C8.05303 40.0593 6.51862 38.5249 4.62583 38.5249C2.73305 38.5249 1.19864 40.0593 1.19864 41.9521C1.19864 43.8449 2.73305 45.3793 4.62583 45.3793Z" stroke="#DD2228" stroke-width="2.7" stroke-linecap="round" stroke-linejoin="round"/>
<path d="M52.7397 6.2241C52.9883 5.74465 53.1304 5.20304 53.1304 4.62593C53.1304 2.73475 51.5944 1.19873 49.7032 1.19873C47.812 1.19873 46.276 2.73475 46.276 4.62593C46.276 6.5171 47.812 8.05312 49.7032 8.05312C51.0261 8.05312 52.1626 7.30731 52.7397 6.21522" stroke="#DD2228" stroke-width="2.7" stroke-linecap="round" stroke-linejoin="round"/>
<path d="M53.7963 61.7871C54.4178 62.4175 55.2879 62.817 56.2468 62.817C58.138 62.817 59.674 61.281 59.674 59.3898C59.674 57.4987 58.138 55.9626 56.2468 55.9626C54.3557 55.9626 52.8196 57.4987 52.8196 59.3898C52.8196 60.3221 53.1925 61.1745 53.8052 61.796" stroke="#DD2228" stroke-width="2.7" stroke-linecap="round" stroke-linejoin="round"/>
<path d="M56.7795 40.931V43.3904H46.1339C45.6456 42.1385 44.8998 41.0198 43.9586 40.0875C43.5502 39.6791 43.0974 39.2973 42.6091 38.9688C43.4437 36.3762 45.8676 34.4939 48.7354 34.4939H50.3336C52.1093 34.4939 53.7253 35.2131 54.8795 36.3762C56.0426 37.5482 56.7618 39.1552 56.7618 40.931H56.7795Z" stroke="#DD2228" stroke-width="2.7" stroke-linecap="round" stroke-linejoin="round"/>
<path d="M49.5434 23.6086H49.5345C47.73 23.6086 46.2671 25.0715 46.2671 26.876V28.2611C46.2671 30.0656 47.73 31.5285 49.5345 31.5285H49.5434C51.3479 31.5285 52.8108 30.0656 52.8108 28.2611V26.876C52.8108 25.0715 51.3479 23.6086 49.5434 23.6086Z" stroke="#DD2228" stroke-width="2.7" stroke-linecap="round" stroke-linejoin="round"/>
<path d="M29.14 38.9688C27.5685 40.052 26.3432 41.588 25.624 43.3993H14.9784V40.9399C14.9784 37.3795 17.864 34.4939 21.4155 34.4939H23.0137C24.7894 34.4939 26.4054 35.2131 27.5596 36.3762C28.2699 37.0954 28.8204 37.9744 29.1311 38.9688H29.14Z" stroke="#DD2228" stroke-width="2.7" stroke-linecap="round" stroke-linejoin="round"/>
<path d="M22.2146 23.6086H22.2057C20.4012 23.6086 18.9384 25.0715 18.9384 26.876V28.2611C18.9384 30.0656 20.4012 31.5285 22.2057 31.5285H22.2146C24.0191 31.5285 25.482 30.0656 25.482 28.2611V26.876C25.482 25.0715 24.0191 23.6086 22.2146 23.6086Z" stroke="#DD2228" stroke-width="2.7" stroke-linecap="round" stroke-linejoin="round"/>
<path d="M36.2341 20.7852H35.5238C32.9887 20.7852 30.9335 22.8403 30.9335 25.3755V28.1634C30.9335 30.6985 32.9887 32.7537 35.5238 32.7537H36.2341C38.7693 32.7537 40.8245 30.6985 40.8245 28.1634V25.3755C40.8245 22.8403 38.7693 20.7852 36.2341 20.7852Z" stroke="#DD2228" stroke-width="2.7" stroke-linecap="round" stroke-linejoin="round"/>
<path d="M46.8087 46.9596V50.6798H24.9493V46.9596C24.9493 45.6988 25.189 44.4913 25.6241 43.3904C26.3344 41.588 27.5685 40.052 29.14 38.9599C30.7116 37.8678 32.6205 37.2285 34.6715 37.2285H37.0865C39.1464 37.2285 41.0464 37.8678 42.618 38.9599C43.1063 39.2973 43.5502 39.6702 43.9675 40.0786C44.8998 41.0109 45.6456 42.1385 46.1428 43.3904C46.5779 44.4913 46.8176 45.69 46.8176 46.9507L46.8087 46.9596Z" stroke="#DD2228" stroke-width="2.7" stroke-linecap="round" stroke-linejoin="round"/>
</g>
<defs>
<clipPath id="clip0_177_11191">
<rect width="70" height="68.1532" fill="white"/>
</clipPath>
</defs>
</svg>
