<?xml version="1.0" encoding="utf-8"?>
<svg width="56" height="56" viewBox="0 0 56 56" fill="none" xmlns="https://www.w3.org/2000/svg">
<g clip-path="url(#clip0_279_2164)">
<path d="M13.4775 33.3265C14.8935 37.5265 15.2855 41.9985 14.7335 46.3985L13.6455 55.1185H35.1495V47.4225C32.4455 46.5905 30.0375 45.5585 28.1495 44.2945" stroke="#DD0C15" stroke-width="2.7" stroke-linecap="round" stroke-linejoin="round"/>
<path d="M35.1416 47.4232C38.0056 48.3032 40.6536 48.8072 41.8776 48.7352C45.2776 48.5272 45.5256 46.2552 45.1736 44.8072C44.9896 44.0312 44.9256 41.9832 44.9256 41.9832C44.9256 41.9832 46.5096 41.9832 46.7416 41.0632C46.8216 40.7352 46.7096 40.4152 46.5176 40.1592C46.3496 39.9272 45.9816 39.7352 46.0056 39.4072C46.0376 39.0632 46.3016 39.0232 46.5736 38.9992C47.1976 38.9432 47.5656 38.2792 47.2856 37.7192C46.8616 36.8792 46.3256 35.0952 46.3256 35.0952C46.3256 35.0952 49.6456 34.8232 50.2056 33.9112C50.7656 33.0072 47.1656 28.4232 46.8296 27.4872C46.6296 26.9272 46.5416 26.2072 46.5176 25.4712C46.5896 25.0152 46.6616 24.5512 46.7096 24.0792C46.7976 23.1992 46.8296 22.3672 46.8216 21.5752C46.8216 21.5432 46.8296 21.5272 46.8216 21.5352C46.7976 17.8152 45.9016 14.9112 44.2536 12.6312" stroke="#DD0C15" stroke-width="2.7" stroke-linecap="round" stroke-linejoin="round"/>
<path d="M21.7979 11.1437L25.0459 6.32771L31.7899 13.7837L39.7179 1.07971" stroke="#DD0C15" stroke-width="2.7" stroke-linecap="round" stroke-linejoin="round"/>
<path d="M13.5178 26.3508L8.66183 34.2068C8.30983 34.7668 7.57383 34.9428 7.00583 34.5908L6.16583 34.0708C5.60583 33.7188 5.42983 32.9828 5.78183 32.4148L10.7018 24.5188" stroke="#DD0C15" stroke-width="2.7" stroke-linecap="round" stroke-linejoin="round"/>
<path d="M22.8283 20.8161C23.4534 16.9652 20.8383 13.3367 16.9874 12.7116C13.1364 12.0865 9.50791 14.7015 8.88281 18.5525C8.25772 22.4034 10.8728 26.0319 14.7237 26.657C18.5746 27.2821 22.2032 24.6671 22.8283 20.8161Z" stroke="#DD0C15" stroke-width="2.7" stroke-linecap="round" stroke-linejoin="round"/>
<path d="M13.0938 20.2873L14.9178 21.9593L18.6298 17.4233" stroke="#DD0C15" stroke-width="2.7" stroke-linecap="round" stroke-linejoin="round"/>
</g>
<defs>
<clipPath id="clip0_279_2164">
<rect width="56" height="56" fill="white"/>
</clipPath>
</defs>
</svg>
