<?xml version="1.0" encoding="utf-8"?>
<svg width="64" height="69" viewBox="0 0 64 69" fill="none" xmlns="https://www.w3.org/2000/svg">
<path d="M6.8802 40.9376C4.18658 40.9376 2 38.7766 2 36.1144V27.6582C2 24.9334 4.2394 22.7202 6.99639 22.7202C8.43299 22.7202 9.59494 23.8686 9.59494 25.2884V38.265C9.59494 39.7475 8.38017 40.9481 6.8802 40.9481V40.9376Z" stroke="#DD2228" stroke-width="4" stroke-linecap="round" stroke-linejoin="round"/>
<path d="M23.6798 53.4726C23.5191 53.1475 22.1333 42.7142 31.0709 40.9872C31.0709 40.9872 21.2496 40.083 21.1693 35.1559C21.1693 35.1559 21.3299 33.0225 23.5995 32.7787C25.0556 32.6162 31.2014 32.159 35.4091 31.8441C37.5682 31.6816 39.3657 33.5 39.205 35.6842L38.1205 50.4452C38.0703 51.0751 37.8393 51.6744 37.4477 52.1621L31.9646 58.9686V66.7707H10.3639V58.9686L4.96119 52.2637C4.51933 51.7151 4.27832 51.0243 4.27832 50.3131V39.5548" stroke="#DD2228" stroke-width="4" stroke-linecap="round" stroke-linejoin="round"/>
<path d="M15.3973 21.2012H15.688C17.3488 21.2012 18.7087 22.5368 18.7087 24.1908V38.5843C18.7087 40.3103 17.2969 41.7075 15.553 41.7075H15.2624C12.1379 41.7075 9.59473 39.1904 9.59473 36.0981V26.9442C9.59473 23.7799 12.1898 21.2012 15.3973 21.2012V21.2012Z" stroke="#DD2228" stroke-width="4" stroke-linecap="round" stroke-linejoin="round"/>
<path d="M18.709 35.6317V24.2968C18.709 21.3315 20.9736 18.9229 23.7616 18.9229C25.579 18.9229 27.0634 20.4915 27.0634 22.4346V30.7739" stroke="#DD2228" stroke-width="4" stroke-linecap="round" stroke-linejoin="round"/>
<path d="M27.0635 32.5935V25.2972C27.0635 22.1988 29.534 19.6821 32.5754 19.6821C34.5581 19.6821 36.1774 21.3212 36.1774 23.3515V31.9696" stroke="#DD2228" stroke-width="4" stroke-linecap="round" stroke-linejoin="round"/>
<path d="M58.7657 33.8452V12.6047H62.0001L54.0204 2.21387L46.0508 12.6047H49.2853V43.2265" stroke="#DD2228" stroke-width="4" stroke-linecap="round" stroke-linejoin="round"/>
</svg>
