<?xml version="1.0" encoding="utf-8"?>
<svg width="60" height="50" viewBox="0 0 60 50" fill="none" xmlns="https://www.w3.org/2000/svg">
<g clip-path="url(#clip0_79_8993)">
<path d="M13.3676 28.5693H1.15381V48.5317H13.3676V28.5693Z" stroke="#DD2228" stroke-width="4" stroke-linecap="round" stroke-linejoin="round"/>
<path d="M13.3677 43.3768L18.4615 45.9308C18.4615 45.9308 26.9323 47.7617 31.5289 47.5082L37.9079 47.1702L60.1404 42.0153C60.1404 42.0153 58.752 38.0341 55.8064 38.0435L40.0654 39.8932" stroke="#DD2228" stroke-width="4" stroke-linecap="round" stroke-linejoin="round"/>
<path d="M25.7503 42.1375L39.784 41.715C39.784 41.715 41.0411 40.0061 38.8741 38.1375C37.5795 37.0202 34.2587 37.0484 32.3169 37.1704C31.21 37.2361 30.1124 37.2174 29.0055 37.0953C28.1518 36.8512 27.3732 36.4005 26.7259 35.7808C24.8967 34.0249 19.1181 30.3348 13.3677 34.438" stroke="#DD2228" stroke-width="4" stroke-linecap="round" stroke-linejoin="round"/>
<path d="M9.39972 35.2077C9.39972 36.3908 8.44287 37.3486 7.26089 37.3486C6.07891 37.3486 5.12207 36.3908 5.12207 35.2077C5.12207 34.0246 6.07891 33.0669 7.26089 33.0669C8.44287 33.0669 9.39972 34.0246 9.39972 35.2077Z" stroke="#DD2228" stroke-width="4" stroke-linecap="round" stroke-linejoin="round"/>
<path d="M39.0991 10.3066C40.0091 7.18928 43.1798 4.91699 46.585 4.91699C50.7313 4.91699 54.0803 8.26908 54.0803 12.4193C54.0803 12.4193 54.6994 21.4333 39.0991 29.4427C23.5082 21.4333 24.1274 12.4193 24.1274 12.4193C24.1274 8.26908 27.4763 4.91699 31.6226 4.91699C35.0279 4.91699 38.1892 7.18928 39.0991 10.3066H39.1085H39.0991Z" stroke="#DD2228" stroke-width="4" stroke-linecap="round" stroke-linejoin="round"/>
</g>
<defs>
<clipPath id="clip0_79_8993">
<rect width="60" height="48.7912" fill="white" transform="translate(0 0.97998)"/>
</clipPath>
</defs>
</svg>
