<?xml version="1.0" encoding="utf-8"?>
<svg width="20" height="21" viewBox="0 0 20 21" fill="none" xmlns="https://www.w3.org/2000/svg">
<path fill-rule="evenodd" clip-rule="evenodd" d="M8.12488 2.9877C8.11833 2.6482 7.84107 2.375 7.5 2.375C7.15482 2.375 6.875 2.65482 6.875 3V4.25H1.875L1.8627 4.25012C1.5232 4.25667 1.25 4.53393 1.25 4.875C1.25 5.22018 1.52982 5.5 1.875 5.5H7.5H10.1444C10.077 5.70199 10.002 5.91554 9.91907 6.1387C9.51879 7.21627 9.02131 8.29347 8.42319 9.29474C8.19935 9.66946 7.96529 10.0265 7.72102 10.3635C7.70817 10.347 7.69533 10.3304 7.68251 10.3137C7.06421 9.51163 6.53088 8.73132 6.08419 8.00471C5.92857 7.75157 5.79512 7.52368 5.68404 7.32506L5.66166 7.28489C5.63996 7.24578 5.62029 7.20987 5.60267 7.17728L5.57776 7.13088L5.54989 7.07793C5.38877 6.77942 5.01767 6.66334 4.7145 6.81902C4.40744 6.9767 4.28634 7.35344 4.44402 7.6605L4.45138 7.67472L4.50281 7.77125C4.52921 7.82008 4.55929 7.87481 4.59306 7.9352L4.60947 7.96447C4.72535 8.17067 4.862 8.40344 5.01932 8.65935L5.05379 8.71525C5.51543 9.46183 6.06191 10.2588 6.69249 11.0769C6.76757 11.1743 6.84306 11.2704 6.9189 11.3651C6.01786 12.4048 5.05491 13.3018 4.093 14.0537C3.74994 14.3219 3.43223 14.5515 3.14836 14.7423C3.06527 14.7982 2.9905 14.847 2.92468 14.8889L2.88967 14.911L2.84405 14.9394L2.79601 14.9686C2.50758 15.147 2.41356 15.5242 2.58675 15.8177C2.76218 16.1149 3.14539 16.2137 3.44266 16.0383C3.4614 16.0272 3.4918 16.0087 3.5332 15.9829L3.59477 15.9441C3.65605 15.9051 3.72333 15.8614 3.79627 15.8128L3.84574 15.7797C4.15377 15.5726 4.49561 15.3256 4.86282 15.0385C5.84101 14.2739 6.81824 13.37 7.73889 12.3263C8.0599 12.6794 8.38322 13.0094 8.7045 13.3157C8.92028 13.5214 9.12157 13.7032 9.3046 13.8606L9.35896 13.9071C9.42889 13.9665 9.49129 14.0182 9.54553 14.0621L9.56168 14.0751C9.58728 14.0957 9.60625 14.1106 9.61825 14.1199L9.62924 14.1282C9.90199 14.3293 10.2868 14.2764 10.4949 14.0068C10.7057 13.7334 10.6551 13.341 10.3818 13.1301L10.3546 13.1087L10.2875 13.0542C10.2619 13.0332 10.2344 13.0103 10.2049 12.9854L10.1686 12.9547C9.98901 12.802 9.78678 12.6204 9.56699 12.4109C9.22688 12.0867 8.88373 11.7334 8.54382 11.3522C8.87999 10.9099 9.19725 10.4364 9.49631 9.93578C10.137 8.86318 10.6657 7.71839 11.0908 6.57396C11.2346 6.187 11.3565 5.82627 11.4574 5.5H13.125L13.1373 5.49988C13.4768 5.49333 13.75 5.21607 13.75 4.875C13.75 4.52982 13.4702 4.25 13.125 4.25H11.0016C10.9924 4.2498 10.9832 4.2498 10.9741 4.25H8.125V3L8.12488 2.9877ZM13.8005 9.0038C14.0148 8.50378 14.7187 8.49878 14.9428 8.9888L14.9495 9.0038L18.6995 17.7538C18.8354 18.0711 18.6885 18.4385 18.3712 18.5745C18.0579 18.7087 17.6957 18.5671 17.5557 18.258L17.5505 18.2462L16.6414 16.125H12.1085L11.1995 18.2462C11.0652 18.5595 10.7052 18.7067 10.3907 18.5794L10.3788 18.5745C10.0655 18.4402 9.91826 18.0802 10.0456 17.7657L10.0505 17.7538L13.8005 9.0038ZM16.1057 14.875L14.375 10.8366L12.6443 14.875H16.1057Z" fill="#DD2228"/>
</svg>
