<?xml version="1.0" encoding="utf-8"?>
<svg width="10" height="278" viewBox="0 0 10 278" fill="none" xmlns="https://www.w3.org/2000/svg">
<path d="M5.00001 1C10.3333 5.6 10.3333 10.2 5.00001 14.8C-0.33332 19.4 -0.33332 24 5 28.6C10.3333 33.2 10.3333 37.8 5 42.4C-0.333321 47 -0.333321 51.6 5 56.2C10.3333 60.8 10.3333 65.4 5 70C-0.333322 74.6 -0.333323 79.2 5 83.8C10.3333 88.4 10.3333 93 5 97.6C-0.333324 102.2 -0.333324 106.8 5 111.4C10.3333 116 10.3333 120.6 5 125.2C-0.333325 129.8 -0.333325 134.4 5 139C10.3333 143.6 10.3333 148.2 5 152.8C-0.333326 157.4 -0.333326 162 5 166.6C10.3333 171.2 10.3333 175.8 5 180.4C-0.333327 185 -0.333327 189.6 5 194.2C10.3333 198.8 10.3333 203.4 5 208C-0.333328 212.6 -0.333329 217.2 5 221.8C10.3333 226.4 10.3333 231 5 235.6C-0.33333 240.2 -0.33333 244.8 5 249.4C10.3333 254 10.3333 258.6 4.99999 263.2C-0.333331 267.8 -0.333331 272.4 4.99999 277" stroke="#DD2228" stroke-width="2"/>
</svg>
