<?xml version="1.0" encoding="utf-8"?>
<svg width="70" height="79" viewBox="0 0 70 79" fill="none" xmlns="https://www.w3.org/2000/svg">
<g clip-path="url(#clip0_78_6484)">
<path d="M19.2366 67.4256C17.4857 68.4767 15.4374 69.0708 13.2402 69.0708C6.77461 69.0708 1.54492 63.8382 1.54492 57.3945C1.54492 52.5618 4.48591 48.4032 8.68568 46.6323" stroke="#DD2228" stroke-width="4" stroke-linecap="round" stroke-linejoin="round"/>
<path d="M19.3511 39.7891C22.2005 36.0988 26.6635 33.7339 31.6757 33.7339C37.5005 33.7339 43.4511 36.2245 45.2478 41.6627" stroke="#DD2228" stroke-width="4" stroke-linecap="round" stroke-linejoin="round"/>
<path d="M42.8901 44.0621C44.8813 41.8 47.7994 40.3833 51.0494 40.3833C56.2791 40.3833 60.6276 43.7079 61.6804 49.6831" stroke="#DD2228" stroke-width="4" stroke-linecap="round" stroke-linejoin="round"/>
<path d="M24.4435 43.6165C23.3907 42.3598 21.9717 41.3544 20.3009 40.7946C18.0122 40.0291 15.3688 40.3719 13.3318 41.2858C10.2993 42.7939 8.22803 45.9129 8.22803 49.5232C8.22803 51.294 8.73154 52.9392 9.58981 54.3445" stroke="#DD2228" stroke-width="4" stroke-linecap="round" stroke-linejoin="round"/>
<path d="M35.2348 69.048C33.7471 71.7556 30.8519 73.5836 27.5448 73.5836C22.7041 73.5836 18.7676 69.6649 18.7676 64.8208C18.7676 61.3704 20.7702 58.3886 23.6654 56.9604" stroke="#DD2228" stroke-width="4" stroke-linecap="round" stroke-linejoin="round"/>
<path d="M53.8419 49.5347C55.0091 49.112 56.2679 48.8721 57.5839 48.8721C63.5918 48.8721 68.4553 53.7276 68.4553 59.7257C68.4553 65.7237 63.5918 70.5793 57.5839 70.5793C55.7186 70.5793 53.9563 70.1109 52.4229 69.2769C51.4387 73.744 47.445 77.0915 42.673 77.0915C38.622 77.0915 35.1317 74.6808 33.564 71.2077" stroke="#DD2228" stroke-width="4" stroke-linecap="round" stroke-linejoin="round"/>
<path d="M38.0039 59.8855C38.0039 56.3895 40.8419 53.5562 44.3436 53.5562C45.6138 53.5562 46.7925 53.9217 47.7767 54.5615" stroke="#DD2228" stroke-width="4" stroke-linecap="round" stroke-linejoin="round"/>
<path d="M35.6235 33.7336V24.6509" stroke="#DD2228" stroke-width="4" stroke-linecap="round" stroke-linejoin="round"/>
<path d="M35.6235 24.6511C35.6235 10.6556 42.5812 4.12061 56.1875 4.12061C56.1875 17.7048 49.6418 24.6511 35.6235 24.6511V24.6511Z" stroke="#DD2228" stroke-width="4" stroke-linecap="round" stroke-linejoin="round"/>
<path d="M35.6237 24.651C35.6237 9.34171 28.0138 2.20117 13.1372 2.20117C13.1372 17.0535 20.2894 24.651 35.6237 24.651Z" stroke="#DD2228" stroke-width="4" stroke-linecap="round" stroke-linejoin="round"/>
</g>
<defs>
<clipPath id="clip0_78_6484">
<rect width="70" height="77.9747" fill="white" transform="translate(0 0.658691)"/>
</clipPath>
</defs>
</svg>
