<?xml version="1.0" encoding="utf-8"?>
<svg width="60" height="52" viewBox="0 0 60 52" fill="none" xmlns="https://www.w3.org/2000/svg">
<g clip-path="url(#clip0_79_8894)">
<path d="M45.2916 18.6678C45.2916 27.4177 36.2316 34.504 25.0459 34.504C22.1059 34.504 19.3116 34.0126 16.783 33.1333C13.7659 39.8574 1.0459 37.9953 1.0459 37.9953C1.0459 37.9953 9.78876 34.185 8.93161 28.2626C6.33447 25.5988 4.79161 22.2712 4.79161 18.6678C4.80018 9.92637 13.8688 2.83154 25.0459 2.83154C36.223 2.83154 45.2916 9.92637 45.2916 18.6678Z" stroke="#DD2228" stroke-width="4" stroke-linecap="round" stroke-linejoin="round"/>
<path d="M24.7285 39.6334C27.0685 44.2714 32.8457 47.5559 39.5999 47.5559C41.9228 47.5559 44.1257 47.1679 46.1228 46.4696C48.5057 51.78 58.5428 50.3058 58.5428 50.3058C58.5428 50.3058 51.6428 47.2972 52.3199 42.6248C54.3685 40.5214 55.5857 37.8921 55.5857 35.0472C55.5857 30.9869 53.1085 27.3748 49.2685 25.0903" stroke="#DD2228" stroke-width="4" stroke-linecap="round" stroke-linejoin="round"/>
<path d="M35.4946 37.5468L38.8718 40.6503L45.6946 32.2451" stroke="#DD2228" stroke-width="4" stroke-linecap="round" stroke-linejoin="round"/>
<path d="M21.7202 14.1158C21.7202 14.2796 21.6859 14.4262 21.6259 14.5641C21.5659 14.702 21.4802 14.8227 21.3774 14.9348C21.2745 15.0383 21.1545 15.1245 21.0174 15.1848C20.8802 15.2452 20.7259 15.271 20.5716 15.271C20.2459 15.271 19.9716 15.1589 19.7574 14.9434C19.5431 14.7193 19.4316 14.452 19.4316 14.1158C19.4316 13.3831 19.5688 12.6934 19.8516 12.0469C20.1345 11.4003 20.5116 10.84 20.9916 10.3572C21.4716 9.87446 22.0374 9.49515 22.6802 9.21067C23.3231 8.93481 24.0002 8.79688 24.7288 8.79688C25.4574 8.79688 26.1345 8.94343 26.7774 9.22791C27.4202 9.51239 27.9774 9.90032 28.4574 10.3831C28.9374 10.8658 29.3231 11.4348 29.5974 12.0814C29.8802 12.7279 30.0174 13.4089 30.0174 14.1245C30.0174 15.5727 29.4945 16.84 28.4574 17.9089L26.7431 19.5038C26.1602 20.09 25.8688 20.7279 25.8688 21.4262C25.8688 21.7538 25.7574 22.0296 25.5431 22.2452C25.3288 22.4607 25.0545 22.5727 24.7288 22.5727C24.4031 22.5727 24.1288 22.4607 23.9059 22.2452C23.6831 22.0296 23.5802 21.7538 23.5802 21.4262C23.5802 20.1072 24.1031 18.9262 25.1402 17.8745L26.8545 16.271C27.4374 15.6589 27.7288 14.9434 27.7288 14.1245C27.7288 13.7107 27.6516 13.3227 27.4888 12.9607C27.3259 12.59 27.1116 12.271 26.8374 11.9952C26.5631 11.7193 26.2459 11.5038 25.8774 11.34C25.5088 11.1762 25.1231 11.0986 24.7202 11.0986C24.3174 11.0986 23.9145 11.1762 23.5459 11.3314C23.1774 11.4865 22.8602 11.702 22.5859 11.9779C22.3116 12.2452 22.0974 12.5641 21.9431 12.9348C21.7888 13.3055 21.7116 13.6934 21.7116 14.1245L21.7202 14.1158Z" fill="#DD2228"/>
<path d="M26.2801 25.9266C26.2801 26.3576 26.1258 26.7283 25.8258 27.03C25.5258 27.3317 25.1572 27.4869 24.7287 27.4869C24.3001 27.4869 23.9315 27.3317 23.6315 27.03C23.3315 26.7283 23.1772 26.3576 23.1772 25.9266C23.1772 25.4955 23.3315 25.1248 23.6315 24.8231C23.9315 24.5214 24.3001 24.3662 24.7287 24.3662C25.1572 24.3662 25.5258 24.5214 25.8258 24.8231C26.1258 25.1248 26.2801 25.4955 26.2801 25.9266Z" fill="#DD2228"/>
</g>
<defs>
<clipPath id="clip0_79_8894">
<rect width="60" height="51.7241" fill="white" transform="translate(0 0.046875)"/>
</clipPath>
</defs>
</svg>
