<?xml version="1.0" encoding="utf-8"?>
<svg width="54" height="55" viewBox="0 0 54 55" fill="none" xmlns="https://www.w3.org/2000/svg">
<g clip-path="url(#clip0_180_10549)">
<path d="M27.5857 32.9909H19.7367C19.5085 32.9909 19.3412 32.7779 19.402 32.5574L22.0412 22.3582C22.1324 22.0008 21.6761 21.765 21.4403 22.0464L7.94033 38.254C7.75018 38.4822 7.9099 38.8244 8.20652 38.8244H16.0479C16.2761 38.8244 16.4434 39.0374 16.3826 39.2579L13.751 49.4723C13.6598 49.8298 14.1161 50.0655 14.3519 49.7841L27.8519 33.5613C28.042 33.3331 27.8823 32.9909 27.5857 32.9909Z" stroke="#DD2228" stroke-width="2.7" stroke-linecap="round" stroke-linejoin="round"/>
<path d="M6.68517 33.2645C3.36911 31.9259 1.03418 28.6783 1.03418 24.8831C1.03418 21.0879 3.30826 17.9316 6.55587 16.5549" stroke="#DD2228" stroke-width="2.7" stroke-linecap="round" stroke-linejoin="round"/>
<path d="M14.7773 11.2695C16.9754 8.41743 20.4207 6.58447 24.2996 6.58447C28.8021 6.58447 33.3959 8.5087 34.7802 12.7222" stroke="#DD2228" stroke-width="2.7" stroke-linecap="round" stroke-linejoin="round"/>
<path d="M32.9624 14.5777C34.4987 12.8284 36.75 11.7332 39.2599 11.7332C43.2985 11.7332 46.6601 14.3039 47.4739 18.9205" stroke="#DD2228" stroke-width="2.7" stroke-linecap="round" stroke-linejoin="round"/>
<path d="M18.7099 14.2357C17.8961 13.2622 16.8085 12.4864 15.5079 12.0605C13.7434 11.4673 11.6975 11.7335 10.1231 12.4332C7.78818 13.5969 6.17578 16.0154 6.17578 18.8067C6.17578 20.1757 6.56367 21.4459 7.22536 22.5335" stroke="#DD2228" stroke-width="2.7" stroke-linecap="round" stroke-linejoin="round"/>
<path d="M41.4199 18.8071C42.3174 18.48 43.2909 18.2975 44.31 18.2975C48.9419 18.2975 52.7067 22.0547 52.7067 26.6941C52.7067 31.3335 48.9495 35.0907 44.31 35.0907C42.865 35.0907 41.5036 34.7257 40.3171 34.0868C39.5565 37.5473 36.4762 40.1333 32.7875 40.1333C31.1675 40.1333 29.6616 39.6313 28.4219 38.7795" stroke="#DD2228" stroke-width="2.7" stroke-linecap="round" stroke-linejoin="round"/>
<path d="M29.1904 26.8155C29.1904 24.1079 31.3809 21.9175 34.0885 21.9175C35.0696 21.9175 35.9747 22.2065 36.7428 22.7009" stroke="#DD2228" stroke-width="2.7" stroke-linecap="round" stroke-linejoin="round"/>
</g>
<defs>
<clipPath id="clip0_180_10549">
<rect width="54" height="54" fill="white" transform="translate(0 0.5)"/>
</clipPath>
</defs>
</svg>
