<?xml version="1.0" encoding="utf-8"?>
<svg width="16" height="12" viewBox="0 0 16 12" fill="none" xmlns="https://www.w3.org/2000/svg">
<path d="M15.8667 6.2424C15.856 6.12184 15.8056 5.96076 15.725 5.87044L11.4749 1.05372C11.2895 0.802121 10.9072 0.802915 10.6721 1.00866C10.4369 1.2146 10.4189 1.58024 10.625 1.79745L14.0518 5.67556H1.13352C0.820655 5.67556 0.566895 5.92933 0.566895 6.24219C0.566895 6.55525 0.820665 6.80881 1.13352 6.80881H14.0518L10.625 10.6869C10.4001 10.9041 10.4634 11.2765 10.6987 11.4824C10.9339 11.6884 11.2897 11.6736 11.4751 11.4309L15.7252 6.61414C15.8388 6.49101 15.8604 6.35761 15.8669 6.24218L15.8667 6.2424Z" fill="white"/>
</svg>
