<?xml version="1.0" encoding="utf-8"?>
<svg width="176" height="24" viewBox="0 0 176 24" fill="none" xmlns="https://www.w3.org/2000/svg">
<g clip-path="url(#clip0_430_1152)">
<path d="M-2.41127e-05 17.3614C1.07624 13.9157 3.3707 11.1921 6.84015 10.1484C10.622 9.00951 14.7883 9.938 18.4464 11.1141C22.4721 12.4083 26.307 14.2241 30.1952 15.8801C33.1068 17.12 36.1848 18.4666 39.3723 18.6685C43.8568 18.9527 49.1597 17.7012 52.1336 13.8578C53.9137 11.5571 54.5617 8.49947 53.6381 5.69587C52.8552 3.31849 51.1475 1.47801 49.2162 0C55.4599 1.83109 58.6772 8.51338 56.1145 14.6584C53.4896 20.9517 46.643 23.8417 40.3026 23.9948C35.1295 24.1197 30.2711 21.8327 25.7168 19.5663C22.6737 18.0517 19.6852 16.4174 16.584 15.0267C13.7172 13.741 10.5128 12.4568 7.32051 12.6998C4.1552 12.9406 1.89503 14.9358 -0.000976562 17.3614H-2.41127e-05Z" fill="white"/>
<path d="M28.1672 12.2074C32.7387 13.7608 37.7429 14.4491 42.5753 13.6019C44.9434 13.187 47.448 12.3692 49.0764 10.4737C50.3358 8.76687 50.3339 6.79824 49.9469 4.77588C51.3111 6.64516 51.8102 9.03289 50.8127 11.2061C49.5386 13.9812 46.5686 15.7738 43.7255 16.1142C38.6328 16.7243 32.7387 15.0174 28.1672 12.2074Z" fill="white"/>
<path d="M16.8886 17.4685C14.0214 16.1828 10.8173 14.8986 7.62471 15.1416C5.04262 15.3381 1.9897 17.0883 1.06201 19.0656C2.75071 18.1446 4.44003 17.6003 6.37128 17.3511C12.3108 16.5841 17.1051 18.6711 21.3063 19.6061C19.8475 18.8643 18.381 18.1381 16.8882 17.4685H16.8886Z" fill="white"/>
</g>
<g clip-path="url(#clip1_430_1152)">
<path d="M126.63 9.62158L124.2 16.6238C124.148 16.7744 124.005 16.8763 123.843 16.8763H122.544C122.382 16.8763 122.238 16.7744 122.186 16.6232L120.405 11.4561C120.328 11.2256 120.279 10.9731 120.261 10.6999H120.234C120.211 10.956 120.156 11.2049 120.07 11.4458L118.283 16.6238C118.23 16.775 118.087 16.8769 117.925 16.8769H116.582C116.422 16.8769 116.279 16.7763 116.225 16.6268L113.747 9.62463C113.661 9.38189 113.843 9.12817 114.104 9.12817H115.077C115.243 9.12817 115.389 9.23491 115.438 9.39104L117.135 14.802C117.208 15.0393 117.253 15.2881 117.271 15.5473H117.306C117.324 15.3637 117.388 15.1149 117.497 14.802L119.42 9.37823C119.473 9.2282 119.617 9.12817 119.777 9.12817H120.909C121.073 9.12817 121.218 9.23308 121.269 9.38738L123.045 14.8447C123.11 15.0393 123.158 15.2698 123.189 15.5363H123.216C123.23 15.3564 123.283 15.1192 123.373 14.8234L125.037 9.39348C125.085 9.23613 125.232 9.12817 125.399 9.12817H126.272C126.531 9.12817 126.713 9.38006 126.629 9.6228L126.63 9.62158Z" fill="white"/>
<path d="M143.537 16.8763H142.591C142.441 16.8763 142.305 16.7891 142.245 16.6537L141.562 15.1265C141.501 14.9911 141.365 14.9039 141.216 14.9039H137.854C137.702 14.9039 137.565 14.9935 137.506 15.1314L136.853 16.6488C136.794 16.7866 136.657 16.8763 136.505 16.8763H135.571C135.294 16.8763 135.112 16.5921 135.229 16.3445L138.549 9.34225C138.611 9.21112 138.744 9.12695 138.891 9.12695H140.242C140.389 9.12695 140.523 9.21112 140.585 9.34286L143.88 16.3451C143.996 16.5927 143.813 16.8757 143.537 16.8757V16.8763ZM140.454 13.8561C140.727 13.8561 140.909 13.5804 140.801 13.334L139.669 10.7645C139.629 10.6645 139.585 10.5023 139.539 10.2784H139.512C139.471 10.484 139.426 10.6462 139.376 10.7645L138.254 13.3352C138.147 13.5816 138.33 13.8561 138.602 13.8561H140.454Z" fill="white"/>
<path d="M160.548 9.65329L157.364 16.6555C157.302 16.7897 157.168 16.8757 157.019 16.8757H155.69C155.54 16.8757 155.405 16.7885 155.344 16.6531L152.216 9.65085C152.106 9.40385 152.289 9.12695 152.562 9.12695H153.507C153.66 9.12695 153.799 9.21905 153.857 9.35932L156.183 15.0057C156.261 15.1936 156.32 15.4113 156.361 15.6602H156.388C156.42 15.4546 156.486 15.2338 156.587 14.9954L158.966 9.35688C159.025 9.21783 159.163 9.12695 159.315 9.12695H160.203C160.477 9.12695 160.66 9.40629 160.548 9.65329Z" fill="white"/>
<path d="M175.622 16.8762H170.871C170.662 16.8762 170.493 16.7091 170.493 16.5029V9.5007C170.493 9.29455 170.662 9.12744 170.871 9.12744H175.403C175.611 9.12744 175.781 9.29455 175.781 9.5007V9.84529C175.781 10.0514 175.611 10.2185 175.403 10.2185H172.498C172.289 10.2185 172.12 10.3857 172.12 10.5918V12.0385C172.12 12.2446 172.289 12.4117 172.498 12.4117H175.115C175.324 12.4117 175.493 12.5788 175.493 12.785V13.1247C175.493 13.3308 175.324 13.498 175.115 13.498H172.498C172.289 13.498 172.12 13.6651 172.12 13.8712V15.4155C172.12 15.6216 172.289 15.7887 172.498 15.7887H175.621C175.83 15.7887 175.999 15.9558 175.999 16.162V16.5017C175.999 16.7078 175.83 16.8749 175.621 16.8749L175.622 16.8762Z" fill="white"/>
<path d="M67.0068 16.3129V15.8713C67.0068 15.6018 67.286 15.4243 67.5374 15.5298L67.5436 15.5322C67.7511 15.6188 67.9704 15.6914 68.2033 15.7512C68.4355 15.8103 68.6678 15.8561 68.9007 15.889C69.1329 15.9213 69.3472 15.9378 69.5431 15.9378C70.2262 15.9378 70.7352 15.8482 71.0706 15.6682C71.4054 15.4883 71.5728 15.2273 71.5728 14.8851C71.5728 14.7015 71.5166 14.5424 71.4054 14.4076C71.2936 14.2728 71.138 14.1496 70.9372 14.0374C70.7364 13.9258 70.5005 13.819 70.2299 13.7166C69.9619 13.6147 69.6752 13.5092 69.3689 13.3988C69.3621 13.3964 69.3547 13.3933 69.3479 13.3909C69.0193 13.2518 68.7129 13.1116 68.4287 12.9688C68.1415 12.8249 67.892 12.6657 67.6801 12.4913C67.4682 12.3169 67.3021 12.1199 67.181 11.9003C67.0605 11.6807 67 11.4234 67 11.1282C67 10.7647 67.1032 10.4487 67.3107 10.1804C67.5182 9.91204 67.7913 9.69126 68.131 9.51683C68.4701 9.3424 68.8562 9.21249 69.2892 9.12832C69.7222 9.04355 70.1638 9.00146 70.6148 9.00146C71.4542 9.00146 72.1071 9.06306 72.5735 9.18626C72.7396 9.23018 72.8564 9.37777 72.8564 9.54793V9.96571C72.8564 10.2237 72.5976 10.4036 72.3517 10.317C71.8872 10.1529 71.3406 10.0706 70.7105 10.0706C70.469 10.0706 70.2287 10.0889 69.9897 10.1249C69.7506 10.1609 69.5363 10.22 69.3472 10.303C69.1582 10.3859 69.0044 10.492 68.8858 10.622C68.7672 10.7513 68.7079 10.908 68.7079 11.0916C68.7079 11.2642 68.7536 11.4136 68.8444 11.5398C68.9352 11.6661 69.0687 11.7808 69.2441 11.8851C69.4195 11.9893 69.6339 12.0912 69.8865 12.19C70.1367 12.2882 70.4251 12.3937 70.7531 12.5071C70.7605 12.5096 70.7686 12.5126 70.7754 12.5157C71.1132 12.6547 71.4314 12.8005 71.7316 12.9536C72.0348 13.1085 72.3011 13.2793 72.5315 13.4665C72.7613 13.6537 72.9435 13.8617 73.0781 14.0898C73.2128 14.3185 73.2801 14.5783 73.2801 14.8699C73.2801 15.262 73.1801 15.5932 72.9793 15.8628C72.7786 16.133 72.5086 16.3525 72.1695 16.5215C71.8298 16.6904 71.4394 16.813 70.9977 16.8886C70.5561 16.9643 70.0885 17.0021 69.5968 17.0021C69.4325 17.0021 69.2311 16.9923 68.9921 16.9722C68.753 16.9521 68.5078 16.9234 68.2576 16.8862C68.0068 16.8484 67.7703 16.8026 67.5467 16.7484C67.4423 16.7234 67.3471 16.6965 67.2613 16.6679C67.1081 16.6172 67.0068 16.4739 67.0068 16.3147V16.3129Z" fill="white"/>
<path d="M88.599 16.8709H83.8539C83.6451 16.8709 83.4758 16.7038 83.4758 16.4977V9.50338C83.4758 9.29724 83.6451 9.13013 83.8539 9.13013H88.3803C88.5891 9.13013 88.7584 9.29724 88.7584 9.50338V9.84675C88.7584 10.0529 88.5891 10.22 88.3803 10.22H85.4803C85.2715 10.22 85.1022 10.3871 85.1022 10.5933V12.0381C85.1022 12.2443 85.2715 12.4114 85.4803 12.4114H88.0931C88.3019 12.4114 88.4711 12.5785 88.4711 12.7846V13.1231C88.4711 13.3293 88.3019 13.4964 88.0931 13.4964H85.4803C85.2715 13.4964 85.1022 13.6635 85.1022 13.8696V15.4121C85.1022 15.6182 85.2715 15.7853 85.4803 15.7853H88.599C88.8078 15.7853 88.977 15.9524 88.977 16.1586V16.4971C88.977 16.7032 88.8078 16.8703 88.599 16.8703V16.8709Z" fill="white"/>
<path d="M106.705 16.8708H105.76C105.61 16.8708 105.475 16.7836 105.414 16.6482L104.731 15.1228C104.671 14.9874 104.535 14.9002 104.386 14.9002H101.028C100.876 14.9002 100.739 14.9899 100.68 15.1277L100.028 16.6433C99.969 16.7811 99.8319 16.8708 99.6806 16.8708H98.7485C98.4717 16.8708 98.2889 16.5866 98.4063 16.339L101.722 9.34469C101.784 9.21356 101.918 9.12939 102.064 9.12939H103.414C103.561 9.12939 103.695 9.21356 103.757 9.3453L107.048 16.3396C107.165 16.5872 106.982 16.8702 106.706 16.8702L106.705 16.8708ZM103.625 13.853C103.898 13.853 104.08 13.5774 103.972 13.331L102.842 10.7657C102.801 10.6651 102.757 10.5029 102.712 10.2797H102.685C102.644 10.4852 102.599 10.6468 102.549 10.7657L101.429 13.3328C101.322 13.5792 101.505 13.8536 101.776 13.8536H103.625V13.853Z" fill="white"/>
</g>
<defs>
<clipPath id="clip0_430_1152">
<rect width="57" height="24" fill="white"/>
</clipPath>
<clipPath id="clip1_430_1152">
<rect width="109" height="8" fill="white" transform="translate(67 9)"/>
</clipPath>
</defs>
</svg>
